# xmcd
# 
# Track frame offsets:
#     150
#     15768
#     42824
#     65978
#     90682
#     114606
#     138249
#     159923
#     182330
#     205485
#     224322
#     239218
#     254706
#     277618
# 
# Disc length: 4014
# 
# Revision: 2
# Processed by: cddbd v1.5.2PL0 Copyright (c) Steve Scherf et al.
# Submitted via: fre:ac v1.0.17
# 
DISCID=c50fac0e
DTITLE=Douglas Adams - Per Anhalter durch die Galaxis - vollständige Lesung CD 02
DYEAR=2009
DGENRE=Speech
TTITLE0=16 Per Anhalter durch die Galaxis
TTITLE1=17 Per Anhalter durch die Galaxis
TTITLE2=18 Per Anhalter durch die Galaxis
TTITLE3=19 Per Anhalter durch die Galaxis
TTITLE4=20 Per Anhalter durch die Galaxis
TTITLE5=21 Per Anhalter durch die Galaxis
TTITLE6=22 Per Anhalter durch die Galaxis
TTITLE7=23 Per Anhalter durch die Galaxis
TTITLE8=24 Per Anhalter durch die Galaxis
TTITLE9=25 Per Anhalter durch die Galaxis
TTITLE10=26 Per Anhalter durch die Galaxis
TTITLE11=27 Per Anhalter durch die Galaxis
TTITLE12=28 Per Anhalter durch die Galaxis
TTITLE13=29 Per Anhalter durch die Galaxis
EXTD=
EXTT0=
EXTT1=
EXTT2=
EXTT3=
EXTT4=
EXTT5=
EXTT6=
EXTT7=
EXTT8=
EXTT9=
EXTT10=
EXTT11=
EXTT12=
EXTT13=
PLAYORDER=
